<?xml version="1.0" encoding="UTF-8"?><svg id="Layer_1" xmlns="http://www.w3.org/2000/svg" viewBox="0 0 495 152"><defs><style>.cls-1{fill:#26326c;}</style></defs><path class="cls-1" d="M104.46,110.66l22-31.68-22-31.68h13.7l16.59,24.51,16.6-24.51h13.45l-21.87,31.68,21.87,31.68h-13.45l-16.6-24.64-16.59,24.64h-13.7Z"/><path class="cls-1" d="M166.56,138.31V47.3h11.31l1.26,9.81c1.26-1.93,2.91-3.75,4.97-5.47,2.05-1.72,4.46-3.12,7.23-4.21,2.77-1.09,6.03-1.63,9.81-1.63,6.12,0,11.46,1.45,16.03,4.34,4.57,2.89,8.13,6.83,10.69,11.82,2.55,4.99,3.83,10.71,3.83,17.16s-1.3,12.05-3.9,17.03c-2.6,4.99-6.18,8.91-10.75,11.75-4.57,2.85-9.91,4.27-16.03,4.27-4.95,0-9.28-.99-13.01-2.96-3.73-1.97-6.69-4.71-8.86-8.23v37.34h-12.57ZM199.12,101.23c3.77,0,7.14-.92,10.12-2.77,2.97-1.84,5.32-4.42,7.04-7.73,1.72-3.31,2.58-7.19,2.58-11.63s-.86-8.44-2.58-11.75c-1.72-3.31-4.07-5.91-7.04-7.79-2.98-1.89-6.35-2.83-10.12-2.83-4.02,0-7.52.94-10.5,2.83-2.98,1.89-5.28,4.48-6.91,7.79-1.64,3.31-2.45,7.23-2.45,11.75s.82,8.3,2.45,11.56c1.63,3.27,3.94,5.85,6.91,7.73,2.97,1.89,6.47,2.83,10.5,2.83Z"/><path class="cls-1" d="M236.96,110.66V20.14h12.57v90.51h-12.57Z"/><path class="cls-1" d="M325.59,110.66v-63.36h11.31l1.01,11.94c1.51-2.85,3.37-5.26,5.59-7.23,2.22-1.97,4.9-3.5,8.05-4.59,3.14-1.09,6.64-1.63,10.5-1.63v13.2h-4.53c-2.6,0-5.07.34-7.42,1.01-2.35.67-4.4,1.76-6.16,3.27-1.76,1.51-3.16,3.54-4.21,6.1-1.05,2.56-1.57,5.8-1.57,9.74v31.55h-12.57Z"/><path class="cls-1" d="M371.35,35.35c-2.43,0-4.42-.75-5.97-2.26-1.55-1.51-2.33-3.44-2.33-5.78s.77-4.13,2.33-5.59c1.55-1.47,3.54-2.2,5.97-2.2s4.32.73,5.91,2.2c1.59,1.47,2.39,3.33,2.39,5.59s-.8,4.27-2.39,5.78c-1.59,1.51-3.56,2.26-5.91,2.26ZM365.06,110.66v-63.36h12.57v63.36h-12.57Z"/><path class="cls-1" d="M410.82,112.17c-5.53,0-10.29-.9-14.27-2.7-3.98-1.8-7.12-4.27-9.43-7.42-2.31-3.14-3.71-6.85-4.21-11.13h12.7c.42,2.01,1.24,3.85,2.45,5.53,1.21,1.68,2.89,3.02,5.03,4.02,2.14,1.01,4.71,1.51,7.73,1.51,2.68,0,4.92-.4,6.73-1.19,1.8-.8,3.14-1.89,4.02-3.27.88-1.38,1.32-2.87,1.32-4.46,0-2.35-.56-4.13-1.7-5.34s-2.83-2.2-5.09-2.96c-2.26-.75-4.99-1.38-8.17-1.89-2.77-.58-5.53-1.3-8.3-2.14-2.77-.84-5.22-1.95-7.35-3.33-2.14-1.38-3.83-3.08-5.09-5.09-1.26-2.01-1.89-4.52-1.89-7.54,0-3.6.94-6.85,2.83-9.74,1.89-2.89,4.63-5.15,8.23-6.79,3.6-1.63,7.84-2.45,12.7-2.45,7.04,0,12.7,1.66,16.97,4.97,4.27,3.31,6.83,8.07,7.67,14.27h-12.19c-.42-2.85-1.7-5.07-3.83-6.66-2.14-1.59-5.05-2.39-8.74-2.39s-6.37.73-8.3,2.2c-1.93,1.47-2.89,3.33-2.89,5.6,0,1.51.57,2.85,1.7,4.02,1.13,1.17,2.74,2.18,4.84,3.02,2.09.84,4.69,1.55,7.79,2.14,4.44.84,8.42,1.91,11.94,3.21,3.52,1.3,6.35,3.17,8.49,5.59,2.14,2.43,3.21,5.91,3.21,10.44,0,4.02-1.03,7.52-3.08,10.5-2.05,2.98-4.95,5.3-8.67,6.98-3.73,1.68-8.11,2.52-13.14,2.52Z"/><path class="cls-1" d="M464.63,110.66c-4.02,0-7.5-.63-10.43-1.89-2.94-1.26-5.2-3.35-6.79-6.29-1.59-2.93-2.39-6.91-2.39-11.94v-32.69h-10.94v-10.56h10.94l1.63-15.97h10.94v15.97h17.85v10.56h-17.85v32.81c0,3.6.75,6.06,2.26,7.35,1.51,1.3,4.11,1.95,7.79,1.95h7.29v10.69h-10.31Z"/><path class="cls-1" d="M287.37,48.05c-17.08,0-30.92,13.85-30.92,30.92s13.85,30.92,30.92,30.92,30.92-13.85,30.92-30.92-13.84-30.92-30.92-30.92ZM304.8,64.34l-10.93,20.15c-.1.21-.24.4-.41.57-.01.02-.02.04-.04.05,0,0,0,0-.01.01-.15.14-.31.25-.49.34l-20.32,10.99c-.3.16-.63.24-.95.24-.52,0-1.04-.2-1.42-.59-.63-.63-.77-1.6-.34-2.38l11-20.27c.1-.21.24-.4.41-.57.02-.02.02-.04.04-.05.15-.14.32-.26.51-.35l20.29-10.97c.25-.14.53-.23.82-.25.06,0,.11,0,.17,0h.01c1.11,0,2,.9,2,2.01,0,.39-.11.76-.31,1.07Z"/><path class="cls-1" d="M28.72,110.57c-1.8,0-3.39-.29-4.78-.87-1.39-.58-2.48-1.52-3.26-2.82-.78-1.3-1.17-3-1.17-5.08,0-.75.03-1.52.09-2.3.06-.78.16-1.62.3-2.52.14-.9.27-1.84.39-2.82l4.69-27.53,2-1.13h15.81l-.61,3.3h-25.62l.52-2.87h.35c1.68,0,3.14-.12,4.39-.35,1.24-.23,2.27-.67,3.08-1.3.81-.64,1.3-1.53,1.48-2.69l1.48-8.25h4.43l-7.12,41c-.17.93-.32,1.84-.43,2.74-.12.9-.2,1.74-.26,2.52-.06.78-.09,1.49-.09,2.13,0,1.8.42,3.13,1.26,4,.84.87,2.16,1.3,3.95,1.3,1.22,0,2.36-.13,3.43-.39,1.07-.26,2.8-.84,3.5-1.17,1.32-.61,3.97-1.98,4.14-2.04l.78,3.53c-.81.35-6.78,2.61-8.12,3.02-1.33.41-2.87.61-4.6.61Z"/><path class="cls-1" d="M48.87,52.64c.17-.87.06-1.52-.35-1.95-.41-.43-1.07-.79-2-1.08-.93-.29-2.08-.58-3.47-.87l-.96-.17.52-2.78h12.33l-11.2,63.84h-4.95l10.07-56.98ZM72.5,97.93c-.23,1.25-.42,2.38-.56,3.39-.15,1.01-.22,1.87-.22,2.56,0,.98.26,1.71.78,2.17.52.46,1.25.7,2.17.7s1.81-.12,2.65-.35c.84-.23,1.58-.49,2.21-.78,1.6-.75,2.88-2.25,3.11-2.31l2.49,2.28c-.41.29-5.86,3.22-6.56,3.54-.69.32-1.46.58-2.3.78-.84.2-1.72.3-2.65.3-1.33,0-2.51-.2-3.52-.61-1.01-.4-1.82-1.07-2.43-2-.61-.93-.91-2.08-.91-3.47,0-.87.07-1.85.22-2.95.14-1.1.35-2.37.61-3.82.26-1.45.56-3.07.91-4.86l2.08-10.42c.29-1.56.53-2.97.74-4.21.2-1.24.3-2.53.3-3.86,0-1.68-.48-3.04-1.43-4.08-.96-1.04-2.48-1.56-4.56-1.56s-4.26.68-6.34,2.04c-2.08,1.36-4.16,3.27-6.21,5.73-2.06,2.46-4.13,5.4-6.21,8.82l-1.22-2.26c2.2-3.65,4.4-6.83,6.6-9.55,2.2-2.72,4.52-4.82,6.95-6.3s5.01-2.22,7.73-2.22c2.03,0,3.75.38,5.17,1.13,1.42.75,2.52,1.81,3.3,3.17.78,1.36,1.17,2.97,1.17,4.82,0,1.22-.12,2.53-.35,3.95-.23,1.42-.49,2.91-.78,4.47l-2.26,11.9c-.23,1.33-.46,2.62-.7,3.86Z"/><path class="cls-1" d="M96.62,111.16c-3.36,0-6.41-1.24-9.05-2.71s-4.72-3.65-6.25-6.51c-1.53-2.87-2.3-6.35-2.3-10.47,0-3.36.52-6.63,1.56-9.81,1.04-3.18,2.55-6.05,4.52-8.6,1.97-2.55,4.34-4.59,7.12-6.12s5.91-2.3,9.38-2.3c2.72,0,5.02.46,6.91,1.39,1.88.93,3.31,2.19,4.3,3.78s1.48,3.43,1.48,5.52c0,2.78-.68,5.18-2.04,7.21-1.36,2.03-3.4,3.71-6.12,5.04-2.72,1.33-6.09,2.3-10.12,2.91s-8.73.88-14.11.82l.61-2.87c4.98-.06,9.19-.36,12.64-.91,3.44-.55,6.22-1.36,8.34-2.43s3.65-2.42,4.6-4.04c.96-1.62,1.43-3.53,1.43-5.73,0-1.51-.3-2.79-.91-3.87-.61-1.07-1.51-1.91-2.69-2.52-1.19-.61-2.68-.91-4.47-.91-2.43,0-4.69.61-6.77,1.82-2.08,1.22-3.92,2.9-5.52,5.04-1.59,2.14-2.82,4.66-3.69,7.56-.87,2.9-1.3,6.02-1.3,9.38s.52,6.2,1.56,8.51c1.04,2.32,2.5,4.05,4.39,5.21,1.88,1.16,3.82,2.17,6.3,2.42s5.25.1,7.04-.23c1.54-.28,2.89-.31,3.79-1.14,1.85-1.7,2.85-1.42,3.91-1.46,3.74-.16,7.39.32,7.39.32v2.39l-5.06.86c-2.34-.16-5.45,1.92-9.01,1.98-3.55.06-5.29.5-7.84.5Z"/></svg>